HIERARCHY
ROOT Hips
{
	OFFSET 0.000000 0.000000 0.000000 
	CHANNELS 6 Xposition Yposition Zposition Yrotation Zrotation Xrotation 
	JOINT Lumbar
	{
		OFFSET 0.000000 0.000000 0.000000 
		CHANNELS 3 Zrotation Xrotation Yrotation
		JOINT Neck
		{
			OFFSET 0.000000 0.445665 0.000000 
			CHANNELS 3 Zrotation Xrotation Yrotation
			End Site
			{
				OFFSET 0.000000 0.227535 0.000000 
			}
		}
		JOINT RightShoulder
		{
			OFFSET 0.019635 0.377685 0.194865 
			CHANNELS 3 Zrotation Xrotation Yrotation
			JOINT RightElbow
			{
				OFFSET 0.000000 -0.243375 0.000000 
				CHANNELS 2 Zrotation Yrotation
				JOINT RightWrist
				{
					OFFSET 0.000000 -0.264825 0.000000 
					CHANNELS 2 Zrotation Xrotation
					End Site
					{
						OFFSET 0.006600 -0.176220 0.000990 
					}
				}
			}
		}
		JOINT LeftShoulder
		{
			OFFSET 0.019635 0.377685 -0.194865 
			CHANNELS 3 Zrotation Xrotation Yrotation
			JOINT LeftElbow
			{
				OFFSET 0.000000 -0.243375 0.000000 
				CHANNELS 2 Zrotation Yrotation
				JOINT LeftWrist
				{
					OFFSET 0.000000 -0.264825 0.000000 
					CHANNELS 2 Zrotation Xrotation
					End Site
					{
						OFFSET 0.006600 -0.176220 -0.000990 
					}
				}
			}
		}
	}
	JOINT RightHip
	{
		OFFSET 0.052140 -0.069960 0.075570 
		CHANNELS 3 Zrotation Xrotation Yrotation
		JOINT RightKnee
		{
			OFFSET 0.000000 -0.402270 0.000000 
			CHANNELS 1 Zrotation
			JOINT RightAnkle
			{
				OFFSET 0.000000 -0.404085 0.000000 
				CHANNELS 3 Zrotation Xrotation Yrotation
				End Site
				{
					OFFSET 0.204105 -0.089430 0.008415 
				}
			}
		}
	}
	JOINT LeftHip
	{
		OFFSET 0.052140 -0.069960 -0.075570 
		CHANNELS 3 Zrotation Xrotation Yrotation
		JOINT LeftKnee
		{
			OFFSET 0.000000 -0.402270 0.000000 
			CHANNELS 1 Zrotation
			JOINT LeftAnkle
			{
				OFFSET 0.000000 -0.404085 0.000000 
				CHANNELS 3 Zrotation Xrotation Yrotation
				End Site
				{
					OFFSET 0.204105 -0.089430 -0.008415 
				}
			}
		}
	}
}
MOTION
Frames: 14
Frame Time: 0.02
0 0.95578 0 173.67723 0 -4.43882 5.22153 5.35463 -2.0122 -31.28832 2.74245 4.88352 33.68462 -76.57229 -66.49291 24.11946 67.03092 -34.82065 -1.22559 39.42608 66.26455 63.29696 16.45292 -89.09727 -25.80258 3.87772 -1.07929 4.91252 -7.36477 -8.02548 1.36004 -3.863 -9.07259 -1.16019 6.70572 3.17804 -5.84162 4.5381 4.47031 8.24209
-0.00076 0.95575 -0.00033 173.58361 0 -4.44188 5.3039 5.32526 -1.94559 -31.34539 2.74346 4.94984 32.67639 -76.69579 -67.45983 24.18364 66.96097 -34.83176 -1.22273 38.81596 66.70099 63.75339 16.67506 -88.58716 -26.08416 3.79146 -1.14358 4.93057 -7.28429 -7.96969 1.35764 -3.86599 -9.06531 -1.24922 6.7199 3.3087 -5.7957 4.55019 4.47547 8.21742
-0.00152 0.95572 -0.00066 173.49104 0 -4.44488 5.38594 5.2958 -1.87938 -31.40162 2.74405 5.01528 31.66526 -76.81747 -68.42944 24.24763 66.89183 -34.84349 -1.21999 38.20227 67.13726 64.21138 16.8974 -88.07764 -26.36629 3.70563 -1.20764 4.9485 -7.2048 -7.91436 1.3554 -3.86898 -9.05805 -1.33774 6.73397 3.43814 -5.75011 4.56225 4.48057 8.19295
-0.00228 0.95568 -0.00099 173.4013 0 -4.44771 5.46734 5.26588 -1.81412 -31.45524 2.74312 5.07819 30.63704 -76.93402 -69.41618 24.31129 66.825 -34.85832 -1.21781 37.57405 67.5765 64.67599 17.12214 -87.56621 -26.65394 3.62097 -1.27139 4.96617 -7.12849 -7.86003 1.35354 -3.87189 -9.05054 -1.42522 6.74779 3.56393 -5.70518 4.57412 4.48541 8.16946
-0.00304 0.95565 -0.00133 173.29607 0 -4.4515 5.55198 5.23861 -1.74386 -31.52291 2.75043 5.1549 29.70456 -77.07886 -70.30857 24.37648 66.74565 -34.85735 -1.21282 37.02962 67.99933 65.10066 17.33351 -87.06577 -26.91303 3.53046 -1.33678 4.98523 -7.03529 -7.80008 1.34939 -3.87509 -9.04408 -1.51837 6.76299 3.70905 -5.65647 4.5868 4.49156 8.1413
-0.00379 0.95562 -0.00165 173.22406 0 -4.45321 5.62978 5.2056 -1.68425 -31.56063 2.7402 5.20208 28.56698 -77.163 -71.40203 24.43849 66.69308 -34.88937 -1.21369 36.30392 68.45689 65.61269 17.5734 -86.54197 -27.23176 3.45217 -1.39863 5.00131 -6.97796 -7.7523 1.35026 -3.87774 -9.03558 -1.59933 6.77524 3.81314 -5.61601 4.59789 4.49496 8.1227
-0.00448 0.95561 -0.00191 173.24219 0 -4.44934 5.68916 5.15657 -1.65336 -31.51504 2.68007 5.16817 26.84049 -77.08155 -73.08025 24.49198 66.71339 -35.02061 -1.2321 35.07804 69.02281 66.36069 17.89795 -85.94158 -27.73462 3.40894 -1.45209 5.00962 -7.02131 -7.73605 1.36405 -3.87827 -9.01933 -1.64847 6.77953 3.80252 -5.59627 4.60358 4.49024 8.13407
-0.00515 0.9556 -0.00215 173.29414 0 -4.44332 5.74157 5.10174 -1.63326 -31.4393 2.60233 5.1043 24.90969 -76.93828 -74.95676 24.54209 66.76068 -35.18404 -1.25616 33.66842 69.62202 67.19808 18.2506 -85.31904 -28.29468 3.37778 -1.50174 5.01484 -7.10058 -7.73249 1.38307 -3.87835 -9.00139 -1.685 6.78082 3.75065 -5.58522 4.60786 4.48283 8.15461
-0.00583 0.95559 -0.0024 173.33179 0 -4.43814 5.79696 5.04956 -1.60872 -31.37761 2.53367 5.05384 23.08408 -76.82195 -76.72699 24.5939 66.79674 -35.32731 -1.27685 32.34005 70.19874 67.99981 18.58698 -84.71387 -28.81659 3.34022 -1.55236 5.0212 -7.16245 -7.72445 1.40035 -3.879 -8.9856 -1.72619 6.78339 3.7187 -5.57153 4.61349 4.47695 8.16845
-0.00652 0.95559 -0.00266 173.36517 0 -4.43354 5.85325 4.99722 -1.58247 -31.31427 2.46091 5.00436 21.2044 -76.71083 -78.56994 24.6458 66.82966 -35.49291 -1.30113 31.01835 70.80686 68.78305 18.93804 -84.0784 -29.38976 3.30654 -1.60637 5.0287 -7.22898 -7.71087 1.41503 -3.87811 -8.96401 -1.77196 6.78633 3.68217 -5.55233 4.6162 4.46973 8.19237
-0.00717 0.95557 -0.00289 173.41515 0 -4.42724 5.90585 4.94397 -1.56202 -31.24746 2.39196 4.94559 19.39163 -76.57375 -80.30262 24.69572 66.87402 -35.62088 -1.31904 29.6429 71.35697 69.62282 19.26526 -83.5002 -29.86971 3.26764 -1.65217 5.03305 -7.29417 -7.71195 1.43628 -3.88035 -8.95405 -1.80512 6.78774 3.64492 -5.54663 4.62454 4.4647 8.19824
-0.00772 0.95553 -0.00303 173.5056 0 -4.41654 5.9516 4.8884 -1.55783 -31.17662 2.34248 4.86964 17.79131 -76.38376 -81.73383 24.74976 66.95737 -35.62514 -1.3201 28.13255 71.74339 70.6234 19.51933 -83.09099 -30.07844 3.21139 -1.67846 5.02976 -7.34843 -7.74958 1.47503 -3.89109 -8.977 -1.80724 6.78616 3.61982 -5.57643 4.64981 4.46611 8.14547
-0.00823 0.95547 -0.00313 173.61104 0 -4.40424 5.99359 4.83235 -1.55858 -31.10388 2.29665 4.78523 16.27157 -76.16913 -83.03766 24.80052 67.04957 -35.59171 -1.3143 26.58148 72.06926 71.67182 19.74845 -82.73964 -30.1911 3.14953 -1.6962 5.02335 -7.39978 -7.80164 1.52008 -3.90503 -9.01165 -1.79697 6.78306 3.59473 -5.61942 4.6806 4.46986 8.07537
-0.00875 0.95542 -0.00325 173.70774 0 -4.39282 6.03625 4.77728 -1.55515 -31.03298 2.24602 4.70389 14.7269 -75.96329 -84.36607 24.84671 67.12741 -35.5845 -1.31001 25.06812 72.42011 72.68222 19.98941 -82.35761 -30.34797 3.09015 -1.71642 5.01815 -7.4515 -7.84765 1.56184 -3.91772 -9.04068 -1.79192 6.78034 3.56685 -5.65615 4.70818 4.47274 8.01763
